<?xml version="1.0" encoding="UTF-8" standalone="no"?>
<!-- Created with Inkscape (http://www.inkscape.org/) -->

<svg
   xmlns:dc="http://purl.org/dc/elements/1.1/"
   xmlns:cc="http://creativecommons.org/ns#"
   xmlns:rdf="http://www.w3.org/1999/02/22-rdf-syntax-ns#"
   xmlns:svg="http://www.w3.org/2000/svg"
   xmlns="http://www.w3.org/2000/svg"
   xmlns:sodipodi="http://sodipodi.sourceforge.net/DTD/sodipodi-0.dtd"
   xmlns:inkscape="http://www.inkscape.org/namespaces/inkscape"
   width="28mm"
   height="28mm"
   viewBox="0 0 28 28.000001"
   version="1.1"
   id="svg8"
   sodipodi:docname="mark5.svg"
   inkscape:version="0.92.5 (2060ec1f9f, 2020-04-08)">
  <defs
     id="defs2" />
  <sodipodi:namedview
     id="base"
     pagecolor="#ffffff"
     bordercolor="#666666"
     borderopacity="1.0"
     inkscape:pageopacity="0.0"
     inkscape:pageshadow="2"
     inkscape:zoom="1.979899"
     inkscape:cx="168.49696"
     inkscape:cy="-122.70536"
     inkscape:document-units="mm"
     inkscape:current-layer="layer1"
     showgrid="false"
     fit-margin-top="5"
     fit-margin-left="5"
     fit-margin-right="5"
     fit-margin-bottom="5"
     inkscape:window-width="1935"
     inkscape:window-height="2092"
     inkscape:window-x="1920"
     inkscape:window-y="27"
     inkscape:window-maximized="0" />
  <metadata
     id="metadata5">
    <rdf:RDF>
      <cc:Work
         rdf:about="">
        <dc:format>image/svg+xml</dc:format>
        <dc:type
           rdf:resource="http://purl.org/dc/dcmitype/StillImage" />
        <dc:title></dc:title>
      </cc:Work>
    </rdf:RDF>
  </metadata>
  <g
     inkscape:label="Layer 1"
     inkscape:groupmode="layer"
     id="layer1"
     transform="translate(-42.975288,-46.988953)">
    <g
       id="g918">
      <path
         style="opacity:1;fill:#000000;fill-opacity:1;fill-rule:evenodd;stroke-width:0.19897916pt"
         inkscape:connector-curvature="0"
         id="path1592-1"
         d="m 56.438311,48.748374 c -1.054526,0.03882 -2.237382,0.392222 -2.868394,1.149092 -0.917837,1.955641 1.311802,1.052684 1.57404,2.406589 0.262238,1.353906 -1.311701,1.428777 -1.311701,1.428777 v 0 h -6.781814 c 0,0 0.0087,6.725441 0.0087,6.725441 0,0 0.07487,1.573938 1.428775,1.311699 1.100048,-0.213069 0.709939,-1.726017 1.57404,-1.793016 0.199405,-0.01546 0.465869,0.04688 0.832551,0.218978 0.75687,0.63101 1.110271,1.81387 1.149089,2.868391 0.01432,0.389285 -0.01967,0.755397 -0.08672,1.075379 -0.0018,0.01422 -0.0048,0.02915 -0.0065,0.04336 -0.117519,0.909868 -0.469125,1.832844 -1.107899,2.365395 -1.95564,0.917837 -1.052684,-1.311801 -2.406586,-1.57404 -0.986446,-0.191065 -1.291181,0.58822 -1.385416,1.027678 v 7.13955 h 7.048486 c 4.001331,-0.0069 5.587185,0.01951 5.587185,0.01951 l 6.742788,-0.01951 c 0,0 -0.04338,-6.816503 -0.04338,-6.816503 0,0 -0.07487,-1.573938 -1.428775,-1.311699 -1.353907,0.262239 -0.450952,2.491875 -2.406592,1.57404 -0.756869,-0.631011 -1.11027,-1.813869 -1.149088,-2.868394 -0.01432,-0.389285 0.01967,-0.755399 0.08672,-1.075376 0.0018,-0.01421 0.0048,-0.02915 0.0065,-0.04336 0.117525,-0.909865 0.469131,-1.832844 1.107899,-2.365393 0.366683,-0.172095 0.63314,-0.234441 0.832551,-0.218978 0.864095,0.067 0.473986,1.577779 1.57404,1.790848 1.263244,0.244681 1.405711,-1.064256 1.420104,-1.246656 v -6.827338 h -7.087511 c -0.444415,-0.102816 -1.176967,-0.415711 -0.99082,-1.376742 0.262238,-1.353906 2.489708,-0.450948 1.571871,-2.40659 -0.532552,-0.638769 -1.455529,-0.990375 -2.365396,-1.107898 -0.0142,-0.0018 -0.02918,-0.0048 -0.04338,-0.0065 -0.319979,-0.06707 -0.686091,-0.101055 -1.075374,-0.08672 z" />
      <g
         id="text871"
         style="font-style:normal;font-weight:normal;font-size:10.58333302px;line-height:1.25;font-family:sans-serif;letter-spacing:0px;word-spacing:0px;fill:#000000;fill-opacity:1;stroke:none;stroke-width:0.26458332"
         aria-label="1">
        <path
           id="path873"
           style="font-style:italic;font-variant:normal;font-weight:800;font-stretch:normal;font-size:19.75555611px;font-family:Emberly;-inkscape-font-specification:'Emberly, Ultra-Bold Italic';font-variant-ligatures:normal;font-variant-caps:normal;font-variant-numeric:normal;font-feature-settings:normal;text-align:start;writing-mode:lr-tb;text-anchor:start;fill:#ffffff;stroke-width:0.26458332"
           d="m 53.045552,69.987454 -0.05927,0.316089 h 4.445001 l 0.05927,-0.316089 H 56.34473 l 2.8448,-13.493045 h -0.889 c -0.948267,0.612423 -1.560689,0.968023 -2.923822,1.363134 l 0.03951,0.296333 c 0.07902,-0.01975 0.770466,-0.217311 1.402644,-0.434622 l -2.607733,12.2682 z" />
      </g>
    </g>
  </g>
</svg>
