<?xml version="1.0" encoding="UTF-8" standalone="no"?>
<!-- Created with Inkscape (http://www.inkscape.org/) -->

<svg
   xmlns:dc="http://purl.org/dc/elements/1.1/"
   xmlns:cc="http://creativecommons.org/ns#"
   xmlns:rdf="http://www.w3.org/1999/02/22-rdf-syntax-ns#"
   xmlns:svg="http://www.w3.org/2000/svg"
   xmlns="http://www.w3.org/2000/svg"
   xmlns:sodipodi="http://sodipodi.sourceforge.net/DTD/sodipodi-0.dtd"
   xmlns:inkscape="http://www.inkscape.org/namespaces/inkscape"
   width="28mm"
   height="28mm"
   viewBox="0 0 28 28.000001"
   version="1.1"
   id="svg8"
   sodipodi:docname="mark4.svg"
   inkscape:version="0.92.5 (2060ec1f9f, 2020-04-08)">
  <defs
     id="defs2" />
  <sodipodi:namedview
     id="base"
     pagecolor="#ffffff"
     bordercolor="#666666"
     borderopacity="1.0"
     inkscape:pageopacity="0.0"
     inkscape:pageshadow="2"
     inkscape:zoom="7.9195959"
     inkscape:cx="-5.7771667"
     inkscape:cy="52.055423"
     inkscape:document-units="mm"
     inkscape:current-layer="layer1"
     showgrid="false"
     fit-margin-top="5"
     fit-margin-left="5"
     fit-margin-right="5"
     fit-margin-bottom="5"
     inkscape:window-width="1935"
     inkscape:window-height="2092"
     inkscape:window-x="1920"
     inkscape:window-y="27"
     inkscape:window-maximized="0" />
  <metadata
     id="metadata5">
    <rdf:RDF>
      <cc:Work
         rdf:about="">
        <dc:format>image/svg+xml</dc:format>
        <dc:type
           rdf:resource="http://purl.org/dc/dcmitype/StillImage" />
        <dc:title />
      </cc:Work>
    </rdf:RDF>
  </metadata>
  <g
     inkscape:label="Layer 1"
     inkscape:groupmode="layer"
     id="layer1"
     transform="translate(-42.975288,-46.988953)">
    <g
       aria-label="once"
       style="font-style:normal;font-weight:normal;font-size:10.58333302px;line-height:1.25;font-family:sans-serif;letter-spacing:0px;word-spacing:0px;fill:#000000;fill-opacity:1;stroke:none;stroke-width:0.26458332"
       id="text814">
      <path
         d="m 51.121737,60.898209 c -0.137583,0.635 0.306917,1.164167 0.910167,1.164167 0.592666,0 1.23825,-0.53975 1.375833,-1.164167 l 0.624417,-2.9845 c 0.137583,-0.635 -0.28575,-1.185333 -0.889,-1.185333 -0.592667,0 -1.259417,0.550333 -1.386417,1.185333 z m 1.164167,-3.175 c 0.105833,-0.465666 0.402166,-0.814916 0.836083,-0.814916 0.423333,0 0.560917,0.34925 0.455083,0.814916 l -0.709083,3.354917 c -0.09525,0.465666 -0.381,0.814916 -0.804333,0.814916 -0.433917,0 -0.582084,-0.34925 -0.486834,-0.814916 z"
         style="font-style:italic;font-variant:normal;font-weight:300;font-stretch:semi-condensed;font-size:10.58333302px;font-family:Emberly;-inkscape-font-specification:'Emberly, Light Italic Semi-Condensed';font-variant-ligatures:normal;font-variant-caps:normal;font-variant-numeric:normal;font-feature-settings:normal;text-align:start;writing-mode:lr-tb;text-anchor:start;stroke-width:0.26458332"
         id="path815" />
      <path
         d="m 53.873385,62.020042 h 0.497417 l 0.814917,-3.831166 c 0.09525,-0.423333 0.5715,-1.248833 1.090083,-1.248833 0.275167,0 0.423333,0.201083 0.3175,0.66675 l -0.8255,3.852333 c -0.148167,0.719666 0.931333,1.153583 1.27,-0.719667 l -0.15875,-0.02117 c -0.264584,1.27 -0.677333,1.11125 -0.60325,0.740834 l 0.79375,-3.767667 c 0.127,-0.624416 -0.232834,-0.941916 -0.687917,-0.941916 -0.433916,0 -0.846666,0.402166 -1.068916,0.8255 l 0.169333,-0.79375 h -0.836083 l -0.03175,0.169333 h 0.338666 z"
         style="font-style:italic;font-variant:normal;font-weight:300;font-stretch:semi-condensed;font-size:10.58333302px;font-family:Emberly;-inkscape-font-specification:'Emberly, Light Italic Semi-Condensed';font-variant-ligatures:normal;font-variant-caps:normal;font-variant-numeric:normal;font-feature-settings:normal;text-align:start;writing-mode:lr-tb;text-anchor:start;stroke-width:0.26458332"
         id="path817" />
      <path
         d="m 57.990273,57.839626 -0.656166,3.090333 c -0.127,0.582083 0.306916,1.132417 0.92075,1.132417 0.645583,0 1.164166,-0.60325 1.280583,-1.121834 l 0.179917,-0.8255 h -0.169334 l -0.179916,0.804334 c -0.09525,0.465666 -0.550334,0.973666 -1.068917,0.973666 -0.402167,0 -0.592667,-0.370416 -0.497417,-0.804333 l 0.709084,-3.3655 c 0.105833,-0.486833 0.486833,-0.8255 0.85725,-0.8255 0.4445,0 0.539749,0.391584 0.391583,0.751417 -0.148167,0.3175 -0.03175,0.433917 0.137583,0.433917 0.148167,0 0.275167,-0.116417 0.3175,-0.338667 0.105833,-0.47625 -0.127,-1.016 -0.772583,-1.016 -0.709083,0 -1.3335,0.60325 -1.449917,1.11125 z"
         style="font-style:italic;font-variant:normal;font-weight:300;font-stretch:semi-condensed;font-size:10.58333302px;font-family:Emberly;-inkscape-font-specification:'Emberly, Light Italic Semi-Condensed';font-variant-ligatures:normal;font-variant-caps:normal;font-variant-numeric:normal;font-feature-settings:normal;text-align:start;writing-mode:lr-tb;text-anchor:start;stroke-width:0.26458332"
         id="path819" />
      <path
         d="m 60.032828,60.940542 c -0.127,0.592667 0.275166,1.121834 0.920749,1.121834 0.645584,0 1.17475,-0.60325 1.280584,-1.121834 l 0.179916,-0.8255 h -0.169333 l -0.179917,0.836084 c -0.105833,0.497416 -0.60325,0.931333 -1.090083,0.931333 -0.423333,0 -0.592667,-0.296333 -0.486833,-0.751417 l 0.34925,-1.629833 c 1.4605,0 2.06375,-0.98425 2.074333,-1.735666 0.01058,-0.550334 -0.391583,-1.037167 -0.994833,-1.037167 -0.486834,0 -1.058334,0.328083 -1.227667,1.132417 z m 0.836083,-1.608666 0.359833,-1.640417 c 0.116417,-0.560916 0.41275,-0.783166 0.687917,-0.783166 0.34925,0 0.53975,0.306916 0.53975,0.6985 0,0.709083 -0.518584,1.725083 -1.5875,1.725083 z"
         style="font-style:italic;font-variant:normal;font-weight:300;font-stretch:semi-condensed;font-size:10.58333302px;font-family:Emberly;-inkscape-font-specification:'Emberly, Light Italic Semi-Condensed';font-variant-ligatures:normal;font-variant-caps:normal;font-variant-numeric:normal;font-feature-settings:normal;text-align:start;writing-mode:lr-tb;text-anchor:start;stroke-width:0.26458332"
         id="path821" />
    </g>
    <path
       style="opacity:0.25;fill:none;fill-opacity:1;stroke:#808080;stroke-width:2;stroke-linejoin:round;stroke-miterlimit:4;stroke-dasharray:none;stroke-opacity:1"
       d="m 48.975288,52.988953 h 16 v 16 h -16 z"
       id="rect814" />
  </g>
</svg>
