<?xml version="1.0" encoding="UTF-8" standalone="no"?>
<!-- Created with Inkscape (http://www.inkscape.org/) -->

<svg
   xmlns:dc="http://purl.org/dc/elements/1.1/"
   xmlns:cc="http://creativecommons.org/ns#"
   xmlns:rdf="http://www.w3.org/1999/02/22-rdf-syntax-ns#"
   xmlns:svg="http://www.w3.org/2000/svg"
   xmlns="http://www.w3.org/2000/svg"
   xmlns:sodipodi="http://sodipodi.sourceforge.net/DTD/sodipodi-0.dtd"
   xmlns:inkscape="http://www.inkscape.org/namespaces/inkscape"
   width="23.059668mm"
   height="28.516699mm"
   viewBox="0 0 23.059668 28.516699"
   version="1.1"
   id="svg8"
   inkscape:version="0.92.5 (2060ec1f9f, 2020-04-08)"
   sodipodi:docname="mark.svg">
  <defs
     id="defs2" />
  <sodipodi:namedview
     id="base"
     pagecolor="#ffffff"
     bordercolor="#666666"
     borderopacity="1.0"
     inkscape:pageopacity="0.0"
     inkscape:pageshadow="2"
     inkscape:zoom="1.979899"
     inkscape:cx="-19.267344"
     inkscape:cy="32.245956"
     inkscape:document-units="mm"
     inkscape:current-layer="layer1"
     showgrid="false"
     fit-margin-top="5"
     fit-margin-left="5"
     fit-margin-right="5"
     fit-margin-bottom="5"
     inkscape:window-width="1935"
     inkscape:window-height="2092"
     inkscape:window-x="1920"
     inkscape:window-y="27"
     inkscape:window-maximized="0" />
  <metadata
     id="metadata5">
    <rdf:RDF>
      <cc:Work
         rdf:about="">
        <dc:format>image/svg+xml</dc:format>
        <dc:type
           rdf:resource="http://purl.org/dc/dcmitype/StillImage" />
        <dc:title></dc:title>
      </cc:Work>
    </rdf:RDF>
  </metadata>
  <g
     inkscape:label="Layer 1"
     inkscape:groupmode="layer"
     id="layer1"
     transform="translate(-40.9543,-41.956306)">
    <g
       aria-label="1"
       transform="scale(0.26458333)"
       style="font-style:normal;font-variant:normal;font-weight:bold;font-stretch:normal;font-size:96px;line-height:1.25;font-family:sans-serif;-inkscape-font-specification:'sans-serif, Bold';font-variant-ligatures:normal;font-variant-caps:normal;font-variant-numeric:normal;font-feature-settings:normal;text-align:start;letter-spacing:0px;word-spacing:0px;writing-mode:lr-tb;text-anchor:start;fill:#000000;fill-opacity:1;stroke:none"
       id="flowRoot4518" />
    <g
       aria-label="s"
       transform="matrix(0.67766259,0,0,0.56221087,-45.315112,-149.30755)"
       style="font-style:italic;font-variant:normal;font-weight:normal;font-stretch:normal;font-size:40.00020599px;line-height:1.25;font-family:'Nimbus Mono PS';-inkscape-font-specification:'Nimbus Mono PS, Italic';font-variant-ligatures:normal;font-variant-caps:normal;font-variant-numeric:normal;font-feature-settings:normal;text-align:start;letter-spacing:0px;word-spacing:0px;writing-mode:lr-tb;text-anchor:start;fill:#000000;fill-opacity:1;stroke:none"
       id="flowRoot4526">
      <path
         id="path4606"
         style="font-style:italic;font-variant:normal;font-weight:normal;font-stretch:normal;font-size:40.00020599px;font-family:'Nimbus Mono PS';-inkscape-font-specification:'Nimbus Mono PS, Italic';font-variant-ligatures:normal;font-variant-caps:normal;font-variant-numeric:normal;font-feature-settings:normal;text-align:start;writing-mode:lr-tb;text-anchor:start"
         d="m 135.01447,372.50327 c -0.04,0.24 -0.08,0.4 -0.08,0.52 0,0.44 0.36001,0.8 0.88001,0.8 0.64,0 1.04,-0.4 1.24001,-1.24 v -0.04 c 1.32,1.28 3.20001,1.92001 5.72002,1.92001 5.20003,0 9.24005,-2.76002 9.24005,-6.32003 0,-1.00001 -0.56,-2.12002 -1.4,-2.76002 -1.12001,-0.84 -2.52002,-1.32001 -4.96003,-1.56001 -3.00002,-0.36 -3.00002,-0.36 -3.84002,-0.68 -0.76,-0.32 -1.32001,-0.96 -1.32001,-1.56001 0,-1.64001 2.60002,-3.04001 5.64003,-3.04001 1.44001,0 2.68002,0.28 3.44002,0.76 0.36,0.28 1.08001,1.04001 1.08001,1.20001 l -0.08,1.2 c 0,0.28 0.48001,0.64001 0.84001,0.64001 0.68,0 1.12,-0.40001 1.28001,-1.24001 l 0.6,-2.72001 c 0.08,-0.36001 0.08,-0.36001 0.08,-0.48001 0,-0.48 -0.36,-0.84 -0.84001,-0.84 -0.56,0 -1,0.4 -1.24,1.04 -1.12001,-1.04 -2.84002,-1.6 -5.00003,-1.6 -4.48002,0 -8.04004,2.40001 -8.04004,5.44002 0,0.92001 0.52,1.92001 1.32001,2.48002 1,0.72 2.08001,1 5.00002,1.28 2.12001,0.24 3.12002,0.48001 4.00002,1.04001 0.68001,0.44 1.16001,1.2 1.16001,1.84001 0,2.08001 -3.08002,3.84002 -6.72003,3.84002 -3.04002,0 -5.28003,-1.16001 -5.28003,-2.68002 0,-0.12 0.04,-0.32 0.08,-0.6 0.04,-0.12 0.04,-0.24 0.04,-0.32 0,-0.44 -0.4,-0.8 -0.88001,-0.8 -0.68,0 -1.08,0.4 -1.28,1.24 z m -0.16708,3.65725 h 6.22256 v -21.28785 l -6.38727,1.58831 v -5.7797 l 6.35067,-1.58832 h 6.6984 v 27.06756 h 6.22256 v 5.86794 h -19.10692 z" />
    </g>
  </g>
</svg>
