<?xml version="1.0" encoding="UTF-8" standalone="no"?>
<!-- Created with Inkscape (http://www.inkscape.org/) -->

<svg
   xmlns:dc="http://purl.org/dc/elements/1.1/"
   xmlns:cc="http://creativecommons.org/ns#"
   xmlns:rdf="http://www.w3.org/1999/02/22-rdf-syntax-ns#"
   xmlns:svg="http://www.w3.org/2000/svg"
   xmlns="http://www.w3.org/2000/svg"
   xmlns:sodipodi="http://sodipodi.sourceforge.net/DTD/sodipodi-0.dtd"
   xmlns:inkscape="http://www.inkscape.org/namespaces/inkscape"
   width="18.713318mm"
   height="19.136396mm"
   viewBox="0 0 18.713318 19.136397"
   version="1.1"
   id="svg8"
   sodipodi:docname="mark3.svg"
   inkscape:version="0.92.5 (2060ec1f9f, 2020-04-08)">
  <defs
     id="defs2" />
  <sodipodi:namedview
     id="base"
     pagecolor="#ffffff"
     bordercolor="#666666"
     borderopacity="1.0"
     inkscape:pageopacity="0.0"
     inkscape:pageshadow="2"
     inkscape:zoom="7.9195959"
     inkscape:cx="4.502286"
     inkscape:cy="35.512763"
     inkscape:document-units="mm"
     inkscape:current-layer="layer1"
     showgrid="false"
     fit-margin-top="5"
     fit-margin-left="5"
     fit-margin-right="5"
     fit-margin-bottom="5"
     inkscape:window-width="1935"
     inkscape:window-height="2092"
     inkscape:window-x="1920"
     inkscape:window-y="27"
     inkscape:window-maximized="0" />
  <metadata
     id="metadata5">
    <rdf:RDF>
      <cc:Work
         rdf:about="">
        <dc:format>image/svg+xml</dc:format>
        <dc:type
           rdf:resource="http://purl.org/dc/dcmitype/StillImage" />
        <dc:title></dc:title>
      </cc:Work>
    </rdf:RDF>
  </metadata>
  <g
     inkscape:label="Layer 1"
     inkscape:groupmode="layer"
     id="layer1"
     transform="translate(-47.505308,-51.425531)">
    <g
       style="font-style:normal;font-weight:normal;font-size:10.58333302px;line-height:1.25;font-family:sans-serif;letter-spacing:0px;word-spacing:0px;fill:#000000;fill-opacity:1;stroke:none;stroke-width:0.26458332"
       id="text4679" />
    <path
       inkscape:connector-curvature="0"
       id="path4692"
       style="font-style:italic;font-variant:normal;font-weight:300;font-stretch:normal;font-size:8.46666622px;line-height:1.25;font-family:Lato;-inkscape-font-specification:'Lato, Light Italic';font-variant-ligatures:normal;font-variant-caps:normal;font-variant-numeric:normal;font-feature-settings:normal;text-align:start;letter-spacing:0px;word-spacing:0px;writing-mode:lr-tb;text-anchor:start;fill:#000000;fill-opacity:1;stroke:none;stroke-width:0.26458332"
       d="m 55.375507,59.895117 q -0.03387,0.05927 -0.09313,0.05927 -0.04233,0 -0.105833,-0.0508 -0.05927,-0.05503 -0.1651,-0.118533 -0.1016,-0.06773 -0.258233,-0.118533 -0.156634,-0.05503 -0.389467,-0.05503 -0.2159,0 -0.410633,0.07197 -0.1905,0.07197 -0.334434,0.194733 -0.1397,0.118534 -0.224366,0.2794 -0.08043,0.156634 -0.08043,0.334434 0,0.173566 0.08043,0.2921 0.08043,0.118533 0.211666,0.207433 0.135467,0.08467 0.300567,0.148167 0.169333,0.0635 0.347133,0.127 0.1778,0.0635 0.3429,0.143933 0.169334,0.0762 0.300567,0.186267 0.135467,0.110066 0.2159,0.270933 0.08043,0.156633 0.08043,0.381 0,0.270933 -0.110066,0.524933 -0.105834,0.254 -0.309034,0.452967 -0.198966,0.194733 -0.4826,0.313267 -0.2794,0.118533 -0.626533,0.118533 -0.4064,0 -0.6858,-0.1397 -0.275167,-0.143933 -0.474133,-0.372533 l 0.1016,-0.143934 q 0.04657,-0.06773 0.1143,-0.06773 0.04233,0 0.105833,0.06773 0.0635,0.06773 0.173567,0.1524 0.110066,0.08043 0.283633,0.148167 0.173567,0.06773 0.436033,0.06773 0.254,0 0.4572,-0.08043 0.207434,-0.08467 0.351367,-0.2286 0.148167,-0.143933 0.2286,-0.3302 0.08043,-0.1905 0.08043,-0.402167 0,-0.186266 -0.08043,-0.313266 -0.08043,-0.127 -0.2159,-0.2159 -0.131233,-0.09313 -0.300567,-0.156634 -0.1651,-0.0635 -0.3429,-0.122766 -0.1778,-0.0635 -0.347133,-0.135467 -0.1651,-0.0762 -0.300567,-0.182033 -0.131233,-0.105834 -0.211666,-0.258234 -0.08043,-0.1524 -0.08043,-0.372533 0,-0.245533 0.105834,-0.4699 0.105833,-0.2286 0.296333,-0.402167 0.1905,-0.1778 0.452967,-0.2794 0.2667,-0.105833 0.579966,-0.105833 0.3556,0 0.613834,0.110067 0.262466,0.110066 0.465666,0.3302 z" />
    <path
       inkscape:connector-curvature="0"
       id="path4694"
       style="font-style:italic;font-variant:normal;font-weight:300;font-stretch:normal;font-size:5.99722242px;line-height:1.25;font-family:Lato;-inkscape-font-specification:'Lato, Light Italic';font-variant-ligatures:normal;font-variant-caps:normal;font-variant-numeric:normal;font-feature-settings:normal;text-align:start;letter-spacing:0px;word-spacing:0px;writing-mode:lr-tb;text-anchor:start;fill:#000000;fill-opacity:1;stroke:none;stroke-width:3;stroke-miterlimit:4;stroke-dasharray:none"
       d="m 56.669845,60.607198 -0.362832,2.983618 h -0.278871 l 0.362832,-2.983618 z m 0.218899,-1.028523 q 0,0.05398 -0.02399,0.101952 -0.02099,0.04498 -0.05697,0.08096 -0.03598,0.03598 -0.08396,0.05697 -0.04498,0.02099 -0.09296,0.02099 -0.05098,0 -0.09595,-0.02099 -0.04498,-0.02099 -0.07796,-0.05697 -0.03298,-0.03598 -0.05398,-0.08096 -0.02099,-0.04798 -0.02099,-0.101952 0,-0.05397 0.02099,-0.101953 0.02099,-0.04798 0.05398,-0.08396 0.03598,-0.03898 0.08096,-0.05997 0.04498,-0.02099 0.09596,-0.02099 0.04798,0 0.09296,0.02099 0.04798,0.02099 0.08396,0.05697 0.03598,0.03598 0.05697,0.08696 0.02099,0.04798 0.02099,0.101953 z" />
    <g
       aria-label="1"
       style="font-style:normal;font-weight:normal;font-size:10.58333302px;line-height:1.25;font-family:sans-serif;letter-spacing:0px;word-spacing:0px;fill:#000000;fill-opacity:1;stroke:none;stroke-width:0.26458332"
       id="text4687">
      <path
         d="m 61.218622,65.561928 h -5.572786 v -0.587044 q 0.248047,-0.01654 0.768945,-0.06615 0.529167,-0.05788 0.727604,-0.115755 0.256315,-0.08268 0.388607,-0.264584 0.14056,-0.190169 0.14056,-0.562239 v -5.804297 h -2.058789 v -0.694531 h 0.454752 q 0.892969,0 1.595769,-0.330729 0.711067,-0.330729 1.016992,-0.711068 h 0.686263 q -0.02481,0.537435 -0.04961,1.256771 -0.0248,0.719336 -0.0248,1.289843 v 4.90306 q 0,0.289388 0.124023,0.520899 0.132292,0.223242 0.37207,0.330729 0.214974,0.09095 0.7028,0.165364 0.487825,0.07441 0.727604,0.08268 z"
         style="font-style:normal;font-variant:normal;font-weight:normal;font-stretch:normal;font-size:16.93333244px;font-family:Georgia;-inkscape-font-specification:'Georgia, Normal';font-variant-ligatures:normal;font-variant-caps:normal;font-variant-numeric:normal;font-feature-settings:normal;text-align:start;writing-mode:lr-tb;text-anchor:start;stroke-width:0.26458332"
         id="path4697"
         inkscape:connector-curvature="0" />
    </g>
  </g>
</svg>
