<?xml version="1.0" encoding="UTF-8" standalone="no"?>
<!-- Created with Inkscape (http://www.inkscape.org/) -->

<svg
   xmlns:dc="http://purl.org/dc/elements/1.1/"
   xmlns:cc="http://creativecommons.org/ns#"
   xmlns:rdf="http://www.w3.org/1999/02/22-rdf-syntax-ns#"
   xmlns:svg="http://www.w3.org/2000/svg"
   xmlns="http://www.w3.org/2000/svg"
   xmlns:sodipodi="http://sodipodi.sourceforge.net/DTD/sodipodi-0.dtd"
   xmlns:inkscape="http://www.inkscape.org/namespaces/inkscape"
   width="37.420242mm"
   height="30.210352mm"
   viewBox="0 0 37.420242 30.210353"
   version="1.1"
   id="svg8"
   sodipodi:docname="mark6.svg"
   inkscape:version="0.92.5 (2060ec1f9f, 2020-04-08)">
  <defs
     id="defs2" />
  <sodipodi:namedview
     id="base"
     pagecolor="#ffffff"
     bordercolor="#666666"
     borderopacity="1.0"
     inkscape:pageopacity="0.0"
     inkscape:pageshadow="2"
     inkscape:zoom="11.2"
     inkscape:cx="59.636313"
     inkscape:cy="33.908674"
     inkscape:document-units="mm"
     inkscape:current-layer="layer1"
     showgrid="false"
     fit-margin-top="5"
     fit-margin-left="5"
     fit-margin-right="5"
     fit-margin-bottom="5"
     inkscape:window-width="1935"
     inkscape:window-height="2092"
     inkscape:window-x="1920"
     inkscape:window-y="27"
     inkscape:window-maximized="0" />
  <metadata
     id="metadata5">
    <rdf:RDF>
      <cc:Work
         rdf:about="">
        <dc:format>image/svg+xml</dc:format>
        <dc:type
           rdf:resource="http://purl.org/dc/dcmitype/StillImage" />
        <dc:title></dc:title>
      </cc:Work>
    </rdf:RDF>
  </metadata>
  <g
     inkscape:label="Layer 1"
     inkscape:groupmode="layer"
     id="layer1"
     transform="translate(-38.841165,-39.310051)">
    <g
       id="g1020">
      <path
         d="m 55.372719,55.875517 -0.0508,0.270933 h 4.064 l 0.0508,-0.270933 h -1.016 l 2.455334,-11.565466 h -0.8128 c -0.9144,0.592666 -1.405467,0.897466 -2.709334,1.27 l 0.03387,0.254 c 0.0508,0 0.626533,-0.169334 1.2192,-0.372534 l -2.218267,10.414 z"
         style="font-style:italic;font-variant:normal;font-weight:900;font-stretch:normal;font-size:16.93333244px;line-height:1.25;font-family:Emberly;-inkscape-font-specification:'Emberly, Heavy Italic';font-variant-ligatures:normal;font-variant-caps:normal;font-variant-numeric:normal;font-feature-settings:normal;text-align:start;letter-spacing:0px;word-spacing:0px;writing-mode:lr-tb;text-anchor:start;fill:#000000;fill-opacity:1;stroke:none;stroke-width:0.26458332"
         id="path967"
         inkscape:connector-curvature="0" />
      <path
         d="m 62.755643,56.14645 c 0,0 1.998133,-3.7592 3.2512,-7.230533 0.4572,-1.236133 -0.762,-1.6256 -0.897467,-0.762 -0.1524,0.8636 0.3556,1.0668 -0.0508,2.150533 -0.4064,1.134534 -0.9144,2.302934 -1.354666,3.2512 l -0.169334,-5.7912 h -1.947333 l -0.0508,0.270934 h 0.6604 l 0.321733,8.111066 z"
         style="font-style:italic;font-variant:normal;font-weight:500;font-stretch:normal;font-size:16.93333244px;line-height:1.25;font-family:Emberly;-inkscape-font-specification:'Emberly, Medium Italic';font-variant-ligatures:normal;font-variant-caps:normal;font-variant-numeric:normal;font-feature-settings:normal;text-align:start;letter-spacing:0px;word-spacing:0px;writing-mode:lr-tb;text-anchor:start;fill:#000000;fill-opacity:1;stroke:none;stroke-width:0.26458332"
         id="path969"
         inkscape:connector-curvature="0" />
      <path
         d="m 65.735883,53.978983 c -0.254,1.202267 0.524933,2.252134 1.9304,2.252134 1.405466,0 2.404533,-1.27 2.607733,-2.218267 l 0.2032,-0.931333 h -0.270933 l -0.220134,0.9652 c -0.2032,0.982133 -1.253066,1.896533 -2.252133,1.896533 -0.795867,0 -1.049867,-0.508 -0.880533,-1.286933 l 0.541866,-2.404533 c 2.794,0 3.776133,-1.456267 3.8608,-2.624667 0.08467,-0.999067 -0.8636,-1.947333 -2.099733,-1.947333 -1.083733,0 -2.2352,0.7112 -2.54,2.201333 z m 1.710266,-1.998133 0.592667,-2.760133 c 0.1524,-0.745067 0.6604,-1.27 1.185333,-1.27 0.541867,0 0.846667,0.524933 0.846667,1.1684 0,1.1176 -0.846667,2.861733 -2.624667,2.861733 z"
         style="font-style:italic;font-variant:normal;font-weight:500;font-stretch:normal;font-size:16.93333244px;line-height:1.25;font-family:Emberly;-inkscape-font-specification:'Emberly, Medium Italic';font-variant-ligatures:normal;font-variant-caps:normal;font-variant-numeric:normal;font-feature-settings:normal;text-align:start;letter-spacing:0px;word-spacing:0px;writing-mode:lr-tb;text-anchor:start;fill:#000000;fill-opacity:1;stroke:none;stroke-width:0.26458332"
         id="path971"
         inkscape:connector-curvature="0" />
      <path
         d="m 49.548144,50.372184 c 0.491067,0.254 0.9652,-0.220134 1.016,-0.897467 0.08467,-1.100667 -0.8636,-1.794933 -1.761066,-1.794933 -1.557867,0 -3.0988,1.202266 -2.218267,2.9972 0.270934,0.541866 1.236133,2.370666 1.456267,2.794 0.728133,1.439333 -0.270934,2.506133 -1.032933,2.506133 -0.643467,0 -1.185334,-0.440267 -0.931334,-1.2192 0.186267,-0.372534 0.321734,-1.2192 -0.254,-1.303867 -0.474133,-0.08467 -0.778933,0.321734 -0.778933,0.982133 0,1.134534 0.9144,1.811867 1.862667,1.811867 1.507066,0 3.301999,-1.4224 2.336799,-3.268133 -0.270933,-0.491067 -1.0668,-2.065867 -1.456266,-2.7432 -0.220134,-0.440267 -0.3048,-0.745067 -0.3048,-1.032933 0,-0.846667 0.592666,-1.253067 1.303866,-1.253067 0.592667,0 0.948267,0.4572 0.6604,1.303867 -0.169333,0.440266 -0.237066,0.948266 0.1016,1.1176 z"
         style="font-style:italic;font-variant:normal;font-weight:500;font-stretch:normal;font-size:16.93333244px;line-height:1.25;font-family:Emberly;-inkscape-font-specification:'Emberly, Medium Italic';font-variant-ligatures:normal;font-variant-caps:normal;font-variant-numeric:normal;font-feature-settings:normal;text-align:start;letter-spacing:0px;word-spacing:0px;writing-mode:lr-tb;text-anchor:start;fill:#000000;fill-opacity:1;stroke:none;stroke-width:0.26458332"
         id="path963"
         inkscape:connector-curvature="0" />
      <path
         d="m 50.564121,53.96205 c -0.237067,1.0668 0.541866,2.269067 1.913466,2.269067 1.3716,0 2.573867,-1.2192 2.794,-2.269067 l 0.846667,-4.0132 c 0.220133,-1.049866 -0.508,-2.269066 -1.8796,-2.269066 -1.388533,0 -2.607733,1.236133 -2.827867,2.269066 z m 2.269066,-4.707466 c 0.135467,-0.6096 0.677334,-1.303867 1.388533,-1.303867 0.677334,0 0.9144,0.694267 0.778934,1.303867 l -1.151467,5.401733 c -0.135466,0.626533 -0.643466,1.303866 -1.337733,1.303866 -0.694267,0 -0.9652,-0.677333 -0.829733,-1.303866 z"
         style="font-style:italic;font-variant:normal;font-weight:500;font-stretch:normal;font-size:16.93333244px;line-height:1.25;font-family:Emberly;-inkscape-font-specification:'Emberly, Medium Italic';font-variant-ligatures:normal;font-variant-caps:normal;font-variant-numeric:normal;font-feature-settings:normal;text-align:start;letter-spacing:0px;word-spacing:0px;writing-mode:lr-tb;text-anchor:start;fill:#000000;fill-opacity:1;stroke:none;stroke-width:0.26458332"
         id="path965"
         inkscape:connector-curvature="0" />
      <path
         sodipodi:nodetypes="cc"
         inkscape:connector-curvature="0"
         id="path947"
         d="m 52.244272,56.252671 -1.871206,7.939282"
         style="fill:none;stroke:#000000;stroke-width:0.64383668;stroke-linecap:round;stroke-linejoin:miter;stroke-miterlimit:4;stroke-dasharray:none;stroke-opacity:1" />
      <path
         inkscape:connector-curvature="0"
         id="rect949"
         d="m 51.178822,61.292746 0.825108,0.147914 -0.32738,1.920715 -0.825108,-0.147914 z"
         style="opacity:1;fill:#000000;fill-opacity:1;stroke:none;stroke-width:0.9879337;stroke-linejoin:round;stroke-miterlimit:4;stroke-dasharray:none;stroke-opacity:1" />
      <path
         inkscape:transform-center-y="0.37134497"
         inkscape:transform-center-x="-0.039909547"
         inkscape:connector-curvature="0"
         id="path961"
         d="m 52.288424,60.815484 -0.799032,3.288511"
         style="fill:none;stroke:#000000;stroke-width:0.84248549;stroke-linecap:round;stroke-linejoin:miter;stroke-miterlimit:4;stroke-dasharray:none;stroke-opacity:1" />
    </g>
  </g>
</svg>
