<?xml version="1.0" encoding="UTF-8" standalone="no"?>
<svg
   role="img"
   viewBox="0 0 23.991083 16.767014"
   version="1.1"
   id="svg6"
   sodipodi:docname="youtube.svg"
   width="23.991083"
   height="16.767014"
   inkscape:version="1.1.2 (0a00cf5339, 2022-02-04)"
   xmlns:inkscape="http://www.inkscape.org/namespaces/inkscape"
   xmlns:sodipodi="http://sodipodi.sourceforge.net/DTD/sodipodi-0.dtd"
   xmlns="http://www.w3.org/2000/svg"
   xmlns:svg="http://www.w3.org/2000/svg"
   xmlns:rdf="http://www.w3.org/1999/02/22-rdf-syntax-ns#"
   xmlns:cc="http://creativecommons.org/ns#"
   xmlns:dc="http://purl.org/dc/elements/1.1/">
  <defs
     id="defs10" />
  <sodipodi:namedview
     id="namedview8"
     pagecolor="#ffffff"
     bordercolor="#666666"
     borderopacity="1.0"
     inkscape:pageshadow="2"
     inkscape:pageopacity="0.0"
     inkscape:pagecheckerboard="0"
     showgrid="false"
     fit-margin-top="0"
     fit-margin-left="0"
     fit-margin-right="0"
     fit-margin-bottom="0"
     inkscape:zoom="36.375"
     inkscape:cx="11.986254"
     inkscape:cy="8.371134"
     inkscape:window-width="4096"
     inkscape:window-height="2091"
     inkscape:window-x="1920"
     inkscape:window-y="32"
     inkscape:window-maximized="1"
     inkscape:current-layer="svg6" />
  <title
     id="title2">YouTube icon</title>
  <path
     d="m 23.490216,2.6989798 a 3.007,3.007 0 0 0 -2.088,-2.08799997 c -1.87,-0.50100001 -9.396,-0.50100001 -9.396,-0.50100001 0,0 -7.507,-0.01 -9.396,0.50100001 A 3.007,3.007 0 0 0 0.52221599,2.6989798 31.247,31.247 0 0 0 2.1599151e-4,8.5039798 31.247,31.247 0 0 0 0.52221599,14.28698 3.007,3.007 0 0 0 2.610216,16.37498 c 1.868,0.502 9.396,0.502 9.396,0.502 0,0 7.506,0 9.396,-0.502 a 3.007,3.007 0 0 0 2.088,-2.088 31.247,31.247 0 0 0 0.5,-5.7830002 31.247,31.247 0 0 0 -0.5,-5.805 z M 9.604216,12.09498 V 4.9019798 l 6.264,3.602 z"
     id="path4"
     style="fill:#ff0000" />
  <metadata
     id="metadata827">
    <rdf:RDF>
      <cc:Work
         rdf:about="">
        <dc:title>YouTube icon</dc:title>
      </cc:Work>
    </rdf:RDF>
  </metadata>
</svg>
